<svg width="188" height="91" viewBox="0 0 188 91" fill="none" xmlns="http://www.w3.org/2000/svg">
<path d="M8.30886 22.122C9.2955 13.4216 16.4704 6.73518 25.2187 6.36344L149.532 1.08103C157.42 0.745815 164.585 5.65376 167.122 13.1308L180.101 51.3867C183.788 62.2524 176.369 73.7128 164.946 74.7969L22.3795 88.3275C11.1377 89.3944 1.76279 79.8464 3.03521 68.626L8.30886 22.122Z" stroke="#A7DE93"/>
<path d="M45.4165 45.6971C45.4165 42.0071 40.0465 43.1771 40.0465 41.0771C40.0465 40.2221 40.6615 39.8171 41.4865 39.8471C42.3865 39.8621 42.9415 40.4021 42.9865 41.0921H45.2965C45.1615 39.2021 43.6915 38.1071 41.5465 38.1071C39.3865 38.1071 37.8565 39.2471 37.8565 41.1371C37.8415 44.9321 43.2415 43.5671 43.2415 45.8321C43.2415 46.5821 42.6565 47.1071 41.6665 47.1071C40.6915 47.1071 40.1365 46.5521 40.0765 45.7121H37.8265C37.8565 47.6921 39.5365 48.8321 41.7115 48.8321C44.0965 48.8321 45.4165 47.3471 45.4165 45.6971ZM50.8071 42.0071C51.8871 42.0071 52.7571 42.6971 52.7871 43.7921H48.8421C49.0071 42.6521 49.8021 42.0071 50.8071 42.0071ZM54.7521 46.1171H52.4871C52.2171 46.6721 51.7221 47.1221 50.8221 47.1221C49.7721 47.1221 48.9321 46.4321 48.8271 45.2021H54.9021C54.9471 44.9321 54.9621 44.6621 54.9621 44.3921C54.9621 41.9171 53.2671 40.2821 50.8671 40.2821C48.4071 40.2821 46.6971 41.9471 46.6971 44.5721C46.6971 47.1821 48.4521 48.8621 50.8671 48.8621C52.9221 48.8621 54.3021 47.6471 54.7521 46.1171ZM60.065 42.0071C61.145 42.0071 62.015 42.6971 62.045 43.7921H58.1C58.265 42.6521 59.06 42.0071 60.065 42.0071ZM64.01 46.1171H61.745C61.475 46.6721 60.98 47.1221 60.08 47.1221C59.03 47.1221 58.19 46.4321 58.085 45.2021H64.16C64.205 44.9321 64.22 44.6621 64.22 44.3921C64.22 41.9171 62.525 40.2821 60.125 40.2821C57.665 40.2821 55.955 41.9471 55.955 44.5721C55.955 47.1821 57.71 48.8621 60.125 48.8621C62.18 48.8621 63.56 47.6471 64.01 46.1171ZM76.437 48.7271H78.657L74.892 38.242H72.447L68.682 48.7271H70.887L71.577 46.7321H75.747L76.437 48.7271ZM75.177 45.0521H72.147L73.662 40.6721L75.177 45.0521ZM80.0643 48.7271H82.1643V37.6271H80.0643V48.7271ZM84.2391 48.7271H86.3391V37.6271H84.2391V48.7271ZM96.8181 38.1221C93.7881 38.1221 91.4781 40.3421 91.4781 43.4771C91.4781 46.6121 93.7881 48.8171 96.8331 48.8171C99.6231 48.8171 101.528 46.8671 101.948 44.7371V42.9071H96.2781V44.5121H99.8781C99.5631 45.9971 98.5281 46.9271 96.9081 46.9271C94.9581 46.9271 93.6381 45.6071 93.6381 43.4771C93.6381 41.3921 94.9431 40.0571 96.8181 40.0571C97.9281 40.0571 98.7981 40.5221 99.2781 41.4071H101.693C101.018 39.3071 99.1581 38.1221 96.8181 38.1221ZM103.502 48.7271H105.602V44.1371C105.602 42.8021 106.337 42.0821 107.477 42.0821C108.587 42.0821 109.322 42.8021 109.322 44.1371V48.7271H111.422V43.8521C111.422 41.5571 110.057 40.2971 108.182 40.2971C107.072 40.2971 106.142 40.7471 105.602 41.4521V37.6271H103.502V48.7271ZM121.444 44.5721C121.444 41.9471 119.569 40.2821 117.169 40.2821C114.769 40.2821 112.894 41.9471 112.894 44.5721C112.894 47.1821 114.709 48.8621 117.109 48.8621C119.524 48.8621 121.444 47.1821 121.444 44.5721ZM115.024 44.5721C115.024 42.9071 116.029 42.1121 117.139 42.1121C118.249 42.1121 119.284 42.9071 119.284 44.5721C119.284 46.2221 118.219 47.0321 117.109 47.0321C115.984 47.0321 115.024 46.2221 115.024 44.5721ZM129.434 46.3571C129.374 43.3121 124.769 44.2571 124.769 42.7421C124.769 42.2621 125.174 41.9471 125.954 41.9471C126.779 41.9471 127.289 42.3821 127.349 43.0271H129.359C129.239 41.3771 128.024 40.2821 126.014 40.2821C123.959 40.2821 122.729 41.3921 122.729 42.7721C122.729 45.8171 127.424 44.8721 127.424 46.3571C127.424 46.8371 126.974 47.2121 126.149 47.2121C125.309 47.2121 124.724 46.7321 124.649 46.1021H122.534C122.624 47.6471 124.079 48.8621 126.164 48.8621C128.189 48.8621 129.434 47.7821 129.434 46.3571ZM131.488 46.1471C131.488 48.0521 132.553 48.7271 134.143 48.7271H135.463V46.9571H134.488C133.828 46.9571 133.603 46.7171 133.603 46.1621V42.1421H135.463V40.4171H133.603V38.3621H131.488V40.4171H130.498V42.1421H131.488V46.1471Z" fill="white"/>
</svg>
