<svg width="426" height="83" viewBox="0 0 426 83" fill="none" xmlns="http://www.w3.org/2000/svg">
<path d="M10.6879 20.1081C11.8356 13.3541 17.4748 8.27455 24.3116 7.83638L135.489 0.710935C142.059 0.289884 148.115 4.2652 150.341 10.4603L162.738 44.9529C165.945 53.8779 160.035 63.4712 150.621 64.62L19.6807 80.5984C9.86488 81.7962 1.665 73.2024 3.32172 63.4536L10.6879 20.1081Z" fill="#A7DE93"/>
<path d="M49.1923 40.91C49.1923 41.795 48.5923 42.29 47.5723 42.29H45.4573V39.47H47.5273C48.5473 39.47 49.1923 40.01 49.1923 40.91ZM48.9373 36.545C48.9373 37.4 48.3673 37.85 47.3773 37.85H45.4573V35.225H47.3773C48.3673 35.225 48.9373 35.705 48.9373 36.545ZM51.3223 41.165C51.3223 39.935 50.4823 38.84 49.2973 38.63C50.3173 38.3 51.0823 37.505 51.0823 36.23C51.0823 34.67 49.8673 33.53 47.6773 33.53H43.3573V44H47.8723C50.0473 44 51.3223 42.83 51.3223 41.165ZM61.0209 39.845C61.0209 37.22 59.1459 35.555 56.7459 35.555C54.3459 35.555 52.4709 37.22 52.4709 39.845C52.4709 42.455 54.2859 44.135 56.6859 44.135C59.1009 44.135 61.0209 42.455 61.0209 39.845ZM54.6009 39.845C54.6009 38.18 55.6059 37.385 56.7159 37.385C57.8259 37.385 58.8609 38.18 58.8609 39.845C58.8609 41.495 57.7959 42.305 56.6859 42.305C55.5609 42.305 54.6009 41.495 54.6009 39.845ZM70.5864 39.845C70.5864 37.22 68.7114 35.555 66.3114 35.555C63.9114 35.555 62.0364 37.22 62.0364 39.845C62.0364 42.455 63.8514 44.135 66.2514 44.135C68.6664 44.135 70.5864 42.455 70.5864 39.845ZM64.1664 39.845C64.1664 38.18 65.1714 37.385 66.2814 37.385C67.3914 37.385 68.4264 38.18 68.4264 39.845C68.4264 41.495 67.3614 42.305 66.2514 42.305C65.1264 42.305 64.1664 41.495 64.1664 39.845ZM72.1268 44H74.2268V40.46L77.0468 44H79.7768L76.0868 39.86L79.7468 35.69H77.0168L74.2268 39.215V32.9H72.1268V44ZM91.3158 33.515V40.715L86.5608 33.515H84.4608V44H86.5608V36.815L91.3158 44H93.4158V33.515H91.3158ZM103.516 39.845C103.516 37.22 101.641 35.555 99.2411 35.555C96.8411 35.555 94.9661 37.22 94.9661 39.845C94.9661 42.455 96.7811 44.135 99.1811 44.135C101.596 44.135 103.516 42.455 103.516 39.845ZM97.0961 39.845C97.0961 38.18 98.1011 37.385 99.2111 37.385C100.321 37.385 101.356 38.18 101.356 39.845C101.356 41.495 100.291 42.305 99.1811 42.305C98.0561 42.305 97.0961 41.495 97.0961 39.845ZM106.571 44H108.851L110.366 38.195L111.881 44H114.146L116.576 35.69H114.566L113.096 42.005L111.536 35.69H109.316L107.726 42.02L106.256 35.69H104.126L106.571 44Z" fill="#303056"/>
<path d="M282.548 35.225H285.338V44H287.438V35.225H290.228V33.53H282.548V35.225ZM293.861 39.86C293.861 38.255 294.611 37.775 295.856 37.775H296.411V35.57C295.256 35.57 294.386 36.125 293.861 36.98V35.69H291.761V44H293.861V39.86ZM297.285 39.815C297.285 42.41 298.965 44.135 301.065 44.135C302.385 44.135 303.33 43.505 303.825 42.785V44H305.94V35.69H303.825V36.875C303.33 36.185 302.415 35.555 301.08 35.555C298.965 35.555 297.285 37.22 297.285 39.815ZM303.825 39.845C303.825 41.42 302.775 42.29 301.62 42.29C300.495 42.29 299.43 41.39 299.43 39.815C299.43 38.24 300.495 37.4 301.62 37.4C302.775 37.4 303.825 38.27 303.825 39.845ZM307.451 39.845C307.451 42.455 309.161 44.135 311.561 44.135C313.631 44.135 315.026 42.965 315.476 41.195H313.211C312.956 41.945 312.416 42.335 311.546 42.335C310.376 42.335 309.596 41.465 309.596 39.845C309.596 38.225 310.376 37.34 311.546 37.34C312.416 37.34 312.971 37.79 313.211 38.495H315.476C315.026 36.635 313.631 35.555 311.561 35.555C309.161 35.555 307.451 37.235 307.451 39.845ZM317.014 44H319.114V40.46L321.934 44H324.664L320.974 39.86L324.634 35.69H321.904L319.114 39.215V32.9H317.014V44ZM334.898 36.785C334.898 37.73 334.373 38.345 333.203 38.345H331.448V35.27H333.203C334.373 35.27 334.898 35.855 334.898 36.785ZM329.348 33.53V44H331.448V39.92H332.438L334.748 44H337.178L334.673 39.755C336.353 39.305 337.058 38.015 337.058 36.74C337.058 34.985 335.798 33.53 333.278 33.53H329.348ZM342.528 37.28C343.608 37.28 344.478 37.97 344.508 39.065H340.563C340.728 37.925 341.523 37.28 342.528 37.28ZM346.473 41.39H344.208C343.938 41.945 343.443 42.395 342.543 42.395C341.493 42.395 340.653 41.705 340.548 40.475H346.623C346.668 40.205 346.683 39.935 346.683 39.665C346.683 37.19 344.988 35.555 342.588 35.555C340.128 35.555 338.418 37.22 338.418 39.845C338.418 42.455 340.173 44.135 342.588 44.135C344.643 44.135 346.023 42.92 346.473 41.39ZM347.676 39.845C347.676 42.455 349.386 44.135 351.786 44.135C353.856 44.135 355.251 42.965 355.701 41.195H353.436C353.181 41.945 352.641 42.335 351.771 42.335C350.601 42.335 349.821 41.465 349.821 39.845C349.821 38.225 350.601 37.34 351.771 37.34C352.641 37.34 353.196 37.79 353.436 38.495H355.701C355.251 36.635 353.856 35.555 351.786 35.555C349.386 35.555 347.676 37.235 347.676 39.845ZM365.264 39.845C365.264 37.22 363.389 35.555 360.989 35.555C358.589 35.555 356.714 37.22 356.714 39.845C356.714 42.455 358.529 44.135 360.929 44.135C363.344 44.135 365.264 42.455 365.264 39.845ZM358.844 39.845C358.844 38.18 359.849 37.385 360.959 37.385C362.069 37.385 363.104 38.18 363.104 39.845C363.104 41.495 362.039 42.305 360.929 42.305C359.804 42.305 358.844 41.495 358.844 39.845ZM368.905 39.86C368.905 38.255 369.655 37.775 370.9 37.775H371.455V35.57C370.3 35.57 369.43 36.125 368.905 36.98V35.69H366.805V44H368.905V39.86ZM372.329 39.815C372.329 42.41 374.009 44.135 376.124 44.135C377.429 44.135 378.359 43.535 378.854 42.77V44H380.984V32.9H378.854V36.845C378.284 36.065 377.234 35.555 376.139 35.555C374.009 35.555 372.329 37.22 372.329 39.815ZM378.869 39.845C378.869 41.42 377.819 42.29 376.664 42.29C375.539 42.29 374.474 41.39 374.474 39.815C374.474 38.24 375.539 37.4 376.664 37.4C377.819 37.4 378.869 38.27 378.869 39.845Z" fill="white"/>
<path d="M420 33L425 38M425 38L420 43M425 38H395" stroke="#F8F8FD"/>
</svg>
