<svg width="477" height="429" viewBox="0 0 477 429" fill="none" xmlns="http://www.w3.org/2000/svg">
<mask id="mask0_11_103" style="mask-type:alpha" maskUnits="userSpaceOnUse" x="7" y="10" width="458" height="419">
<path d="M315.258 20.4502C264.871 7.35646 211.975 7.35644 161.589 20.4502L145.919 24.5223C61.0691 46.572 3.27279 125.054 7.39514 212.625L8.17231 229.135C11.193 293.304 52.2237 349.474 112.434 371.868C119.167 374.372 124.894 379.011 128.742 385.077L142.285 406.429C147.933 415.333 156.586 421.918 166.674 424.986L167.448 425.222C169.322 425.792 171.28 426.04 173.237 425.955C182.797 425.539 190.836 418.647 192.706 409.263L192.952 408.027C194.506 400.235 205.542 399.948 207.498 407.649L207.976 409.533C210.382 419.006 218.358 426.031 228.06 427.221L235.681 428.157C238.035 428.445 240.415 428.445 242.769 428.157L249.616 427.316C259.784 426.069 268.143 418.706 270.665 408.777L271.005 407.439C273.055 399.367 284.565 399.488 286.445 407.602L286.872 409.448C289.036 418.785 297.159 425.535 306.735 425.951C308.746 426.038 310.757 425.784 312.683 425.198L313.264 425.021C323.4 421.938 332.027 415.194 337.466 406.103L350.14 384.918C353.71 378.951 359.112 374.298 365.542 371.652C420.268 349.13 457.71 297.784 462.425 238.792L463.941 219.816C471.219 128.751 412.062 45.6065 323.643 22.6293L315.258 20.4502Z" fill="#FFF0D3"/>
</mask>
<g mask="url(#mask0_11_103)">
<g filter="url(#filter0_di_11_103)">
<path d="M315.258 20.4502C264.871 7.35646 211.975 7.35644 161.589 20.4502L145.919 24.5223C61.0691 46.572 3.27279 125.054 7.39514 212.625L8.17231 229.135C11.193 293.304 52.2237 349.474 112.434 371.868C119.167 374.372 124.894 379.011 128.742 385.077L142.285 406.429C147.933 415.333 156.586 421.918 166.674 424.986L167.448 425.222C169.322 425.792 171.28 426.04 173.237 425.955C182.797 425.539 190.836 418.647 192.706 409.263L192.952 408.027C194.506 400.235 205.542 399.948 207.498 407.649L207.976 409.533C210.382 419.006 218.358 426.031 228.06 427.221L235.681 428.157C238.035 428.445 240.415 428.445 242.769 428.157L249.616 427.316C259.784 426.069 268.143 418.706 270.665 408.777L271.005 407.439C273.055 399.367 284.565 399.488 286.445 407.602L286.872 409.448C289.036 418.785 297.159 425.535 306.735 425.951C308.746 426.038 310.757 425.784 312.683 425.198L313.264 425.021C323.4 421.938 332.027 415.194 337.466 406.103L350.14 384.918C353.71 378.951 359.112 374.298 365.542 371.652C420.268 349.13 457.71 297.784 462.425 238.792L463.941 219.816C471.219 128.751 412.062 45.6065 323.643 22.6293L315.258 20.4502Z" fill="url(#paint0_radial_11_103)"/>
</g>
<g filter="url(#filter1_f_11_103)">
<ellipse cx="167.171" cy="27.797" rx="80.7527" ry="31.4698" fill="white"/>
</g>
<g filter="url(#filter2_f_11_103)">
<ellipse cx="167.171" cy="27.7971" rx="51.658" ry="20.1882" fill="white"/>
</g>
<g opacity="0.4" filter="url(#filter3_f_11_103)">
<path d="M86.8623 313.883C84.6097 283.678 106.224 256.925 136.228 252.781L209.187 242.704C223.267 240.759 237.548 240.759 251.628 242.704L324.298 252.741C354.43 256.903 376.095 283.832 373.708 314.156C369.889 362.67 329.407 400.091 280.743 400.091H179.739C130.989 400.091 90.4877 362.497 86.8623 313.883Z" fill="url(#paint1_linear_11_103)"/>
</g>
<g filter="url(#filter4_dd_11_103)">
<circle cx="122.935" cy="177.724" r="61.4552" fill="url(#paint2_linear_11_103)"/>
</g>
<g filter="url(#filter5_dd_11_103)">
<circle cx="353.911" cy="177.724" r="61.4552" fill="url(#paint3_linear_11_103)"/>
</g>
<g filter="url(#filter6_f_11_103)">
<ellipse rx="55.1478" ry="12.5969" transform="matrix(0.771824 -0.635836 0.664722 0.747091 344.582 397.234)" fill="white"/>
</g>
<g filter="url(#filter7_f_11_103)">
<ellipse rx="18.8145" ry="6.67382" transform="matrix(0.771824 -0.635836 0.664722 0.747091 333.617 413.522)" fill="white"/>
</g>
<g filter="url(#filter8_f_11_103)">
<ellipse cx="265.958" cy="424.904" rx="27.6765" ry="14.1939" transform="rotate(-40.5683 265.958 424.904)" fill="white"/>
</g>
<g filter="url(#filter9_f_11_103)">
<ellipse cx="188.806" cy="428.43" rx="39.7783" ry="14.1939" transform="rotate(-40.5683 188.806 428.43)" fill="white"/>
</g>
</g>
<defs>
<filter id="filter0_di_11_103" x="-12.4064" y="-4.42079" width="487.64" height="441.107" filterUnits="userSpaceOnUse" color-interpolation-filters="sRGB">
<feFlood flood-opacity="0" result="BackgroundImageFix"/>
<feColorMatrix in="SourceAlpha" type="matrix" values="0 0 0 0 0 0 0 0 0 0 0 0 0 0 0 0 0 0 127 0" result="hardAlpha"/>
<feOffset dx="7.71901" dy="5.34393"/>
<feGaussianBlur stdDeviation="1.48442"/>
<feColorMatrix type="matrix" values="0 0 0 0 1 0 0 0 0 0 0 0 0 0 0.12 0 0 0 1 0"/>
<feBlend mode="normal" in2="BackgroundImageFix" result="effect1_dropShadow_11_103"/>
<feBlend mode="normal" in="SourceGraphic" in2="effect1_dropShadow_11_103" result="shape"/>
<feColorMatrix in="SourceAlpha" type="matrix" values="0 0 0 0 0 0 0 0 0 0 0 0 0 0 0 0 0 0 127 0" result="hardAlpha"/>
<feOffset dx="-19.5944" dy="-15.0507"/>
<feGaussianBlur stdDeviation="15.0507"/>
<feComposite in2="hardAlpha" operator="arithmetic" k2="-1" k3="1"/>
<feColorMatrix type="matrix" values="0 0 0 0 0 0 0 0 0 1 0 0 0 0 0.94 0 0 0 0.31 0"/>
<feBlend mode="normal" in2="shape" result="effect2_innerShadow_11_103"/>
</filter>
<filter id="filter1_f_11_103" x="27.0413" y="-63.0498" width="280.259" height="181.693" filterUnits="userSpaceOnUse" color-interpolation-filters="sRGB">
<feFlood flood-opacity="0" result="BackgroundImageFix"/>
<feBlend mode="normal" in="SourceGraphic" in2="BackgroundImageFix" result="shape"/>
<feGaussianBlur stdDeviation="29.6885" result="effect1_foregroundBlur_11_103"/>
</filter>
<filter id="filter2_f_11_103" x="56.1357" y="-51.7681" width="222.07" height="159.13" filterUnits="userSpaceOnUse" color-interpolation-filters="sRGB">
<feFlood flood-opacity="0" result="BackgroundImageFix"/>
<feBlend mode="normal" in="SourceGraphic" in2="BackgroundImageFix" result="shape"/>
<feGaussianBlur stdDeviation="29.6885" result="effect1_foregroundBlur_11_103"/>
</filter>
<filter id="filter3_f_11_103" x="-2.36432" y="152.18" width="465.317" height="336.977" filterUnits="userSpaceOnUse" color-interpolation-filters="sRGB">
<feFlood flood-opacity="0" result="BackgroundImageFix"/>
<feBlend mode="normal" in="SourceGraphic" in2="BackgroundImageFix" result="shape"/>
<feGaussianBlur stdDeviation="44.5327" result="effect1_foregroundBlur_11_103"/>
</filter>
<filter id="filter4_dd_11_103" x="29.0845" y="97.2127" width="201.039" height="204.85" filterUnits="userSpaceOnUse" color-interpolation-filters="sRGB">
<feFlood flood-opacity="0" result="BackgroundImageFix"/>
<feColorMatrix in="SourceAlpha" type="matrix" values="0 0 0 0 0 0 0 0 0 0 0 0 0 0 0 0 0 0 127 0" result="hardAlpha"/>
<feOffset dx="6.66956" dy="23.8198"/>
<feGaussianBlur stdDeviation="19.5323"/>
<feColorMatrix type="matrix" values="0 0 0 0 0.758333 0 0 0 0 0.408363 0 0 0 0 0.0853125 0 0 0 0.77 0"/>
<feBlend mode="normal" in2="BackgroundImageFix" result="effect1_dropShadow_11_103"/>
<feColorMatrix in="SourceAlpha" type="matrix" values="0 0 0 0 0 0 0 0 0 0 0 0 0 0 0 0 0 0 127 0" result="hardAlpha"/>
<feOffset dx="-4.76397" dy="-4.76397"/>
<feGaussianBlur stdDeviation="7.14595"/>
<feColorMatrix type="matrix" values="0 0 0 0 1 0 0 0 0 1 0 0 0 0 1 0 0 0 0.59 0"/>
<feBlend mode="normal" in2="effect1_dropShadow_11_103" result="effect2_dropShadow_11_103"/>
<feBlend mode="normal" in="SourceGraphic" in2="effect2_dropShadow_11_103" result="shape"/>
</filter>
<filter id="filter5_dd_11_103" x="246.722" y="97.2127" width="201.039" height="204.85" filterUnits="userSpaceOnUse" color-interpolation-filters="sRGB">
<feFlood flood-opacity="0" result="BackgroundImageFix"/>
<feColorMatrix in="SourceAlpha" type="matrix" values="0 0 0 0 0 0 0 0 0 0 0 0 0 0 0 0 0 0 127 0" result="hardAlpha"/>
<feOffset dx="-6.66956" dy="23.8198"/>
<feGaussianBlur stdDeviation="19.5323"/>
<feColorMatrix type="matrix" values="0 0 0 0 0.758333 0 0 0 0 0.408363 0 0 0 0 0.0853125 0 0 0 0.77 0"/>
<feBlend mode="normal" in2="BackgroundImageFix" result="effect1_dropShadow_11_103"/>
<feColorMatrix in="SourceAlpha" type="matrix" values="0 0 0 0 0 0 0 0 0 0 0 0 0 0 0 0 0 0 127 0" result="hardAlpha"/>
<feOffset dx="4.76397" dy="-4.76397"/>
<feGaussianBlur stdDeviation="7.14595"/>
<feColorMatrix type="matrix" values="0 0 0 0 1 0 0 0 0 1 0 0 0 0 1 0 0 0 0.59 0"/>
<feBlend mode="normal" in2="effect1_dropShadow_11_103" result="effect2_dropShadow_11_103"/>
<feBlend mode="normal" in="SourceGraphic" in2="effect2_dropShadow_11_103" result="shape"/>
</filter>
<filter id="filter6_f_11_103" x="259.629" y="319.355" width="169.905" height="155.758" filterUnits="userSpaceOnUse" color-interpolation-filters="sRGB">
<feFlood flood-opacity="0" result="BackgroundImageFix"/>
<feBlend mode="normal" in="SourceGraphic" in2="BackgroundImageFix" result="shape"/>
<feGaussianBlur stdDeviation="20.7819" result="effect1_foregroundBlur_11_103"/>
</filter>
<filter id="filter7_f_11_103" x="294.678" y="376.807" width="77.8777" height="73.4293" filterUnits="userSpaceOnUse" color-interpolation-filters="sRGB">
<feFlood flood-opacity="0" result="BackgroundImageFix"/>
<feBlend mode="normal" in="SourceGraphic" in2="BackgroundImageFix" result="shape"/>
<feGaussianBlur stdDeviation="11.8754" result="effect1_foregroundBlur_11_103"/>
</filter>
<filter id="filter8_f_11_103" x="201.427" y="362.355" width="129.062" height="125.098" filterUnits="userSpaceOnUse" color-interpolation-filters="sRGB">
<feFlood flood-opacity="0" result="BackgroundImageFix"/>
<feBlend mode="normal" in="SourceGraphic" in2="BackgroundImageFix" result="shape"/>
<feGaussianBlur stdDeviation="20.7819" result="effect1_foregroundBlur_11_103"/>
</filter>
<filter id="filter9_f_11_103" x="115.638" y="358.832" width="146.335" height="139.196" filterUnits="userSpaceOnUse" color-interpolation-filters="sRGB">
<feFlood flood-opacity="0" result="BackgroundImageFix"/>
<feBlend mode="normal" in="SourceGraphic" in2="BackgroundImageFix" result="shape"/>
<feGaussianBlur stdDeviation="20.7819" result="effect1_foregroundBlur_11_103"/>
</filter>
<radialGradient id="paint0_radial_11_103" cx="0" cy="0" r="1" gradientUnits="userSpaceOnUse" gradientTransform="translate(238.423 61.0479) rotate(91.118) scale(380.382 307.409)">
<stop stop-color="#FFF0D3"/>
<stop offset="0.420971" stop-color="#FFED48" stop-opacity="0.990923"/>
<stop offset="0.829897" stop-color="#FFD643" stop-opacity="0.77"/>
<stop offset="1" stop-color="#C69F17"/>
</radialGradient>
<linearGradient id="paint1_linear_11_103" x1="230.407" y1="239.773" x2="230.407" y2="400.091" gradientUnits="userSpaceOnUse">
<stop stop-color="#9E4722"/>
<stop offset="1" stop-color="#BB391C" stop-opacity="0.87"/>
</linearGradient>
<linearGradient id="paint2_linear_11_103" x1="122.935" y1="125.083" x2="122.983" y2="250.073" gradientUnits="userSpaceOnUse">
<stop stop-color="#2E1E65"/>
<stop offset="1" stop-color="#11082F"/>
</linearGradient>
<linearGradient id="paint3_linear_11_103" x1="353.911" y1="125.083" x2="353.96" y2="250.073" gradientUnits="userSpaceOnUse">
<stop stop-color="#2E1E65"/>
<stop offset="1" stop-color="#11082F"/>
</linearGradient>
</defs>
</svg>
